# xmcd
#
# Track frame offsets:
#	150
#	15832
#	38437
#	56140
#	69707
#	92646
#	110183
#	132035
#	149161
#
# Disc length: 2382 seconds
#
# Revision: 0
# Processed by: cddbd v1.4PL0 Copyright (c) Steve Scherf et al.
# Submitted via: gmmusic 1.0.4
#
DISCID=7c094c09
DTITLE=The Milwaukee Slim Blues Band - The Milwaukee Slim Blues Band
DYEAR=1999
DGENRE=Blues
TTITLE0=Blow Wind Blow
TTITLE1=Hootchie Cootchie Man
TTITLE2=Big Boss Man
TTITLE3=San Ho Zay
TTITLE4=The Sun Is Shining
TTITLE5=I Just Want A Little Bit
TTITLE6=Off The Wall
TTITLE7=Walkin' Thru The Park
TTITLE8=That's All Right
EXTD=Local Milwaukee Blues Band
EXTT0=
EXTT1=
EXTT2=
EXTT3=
EXTT4=
EXTT5=
EXTT6=
EXTT7=
EXTT8=
PLAYORDER=
